PathFileType	4	(X/Y/Z)	C:/Users/beibeiliu/ov580/test_trc/capture2\sequence.8_training_dense_left.trc
DataRate	CameraRate	NumFrames	NumMarkers	Units	OrigDataRate	OrigDataStartFrame	OrigNumFrames
120	120	15	19	mm	120	351	400
Frame#	Time	ThumbCMC			ThumbMCP			ThumbIP			ThumbTip			IndexMCP			IndexPIP			IndexTip			MiddleMCP			MiddlePIP			MiddleTip			RingMCP			RingPIP			RingTip			PinkyMCP			PinkyPIP			PinkyTip			BackHand1			BackHand2			BackHand3	
		X0	Y0	Z0	X1	Y1	Z1	X2	Y2	Z2	X3	Y3	Z3	X4	Y4	Z4	X5	Y5	Z5	X6	Y6	Z6	X7	Y7	Z7	X8	Y8	Z8	X9	Y9	Z9	X10	Y10	Z10	X11	Y11	Z11	X12	Y12	Z12	X13	Y13	Z13	X14	Y14	Z14	X15	Y15	Z15	X16	Y16	Z16	X17	Y17	Z17	X18	Y18	Z18	
350	2.91667	-182.933	44.3771	-30.5111	-194.32	61.2317	-47.0532	-207.828	69.3415	-65.0947	-220.747	76.8229	-80.0702	-152.235	60.933	-102.922	-146.962	73.2084	-120.225	-142.009	86.6394	-144.25	-123.041	53.7578	-101.784	-113.82	65.1564	-121.735	-103.565	75.6409	-146.963	-107.671	51.6254	-85.6273	-91.3459	63.5595	-107.45	-80.1993	73.2353	-127.536	-85.8952	49.8259	-61.1485	-67.5242	61.9053	-73.0003	-45.5513	64.4245	-83.8465	-122.178	26.3427	-49.3125	-135.12	12.5158	-25.3368	-155.548	21.108	-42.3254	
351	2.925	-183	42.9727	-32.5168	-195.416	59.2086	-48.2392	-209.774	66.9909	-67.8591	-220.695	71.7457	-80.6951	-155.945	54.5397	-103.389	-151.558	64.445	-121.761	-145.586	76.1102	-149.487	-124.475	45.584	-102.043	-121.457	54.4024	-124.468	-105.89	61.1005	-147.607	-102.888	44.9599	-91.758	-91.3314	53.3111	-110.917	-79.4746	59.5955	-128.895	-87.7637	44.8878	-67.6187	-71.884	52.7666	-78.2131	-48.2292	54.0333	-87.6361	-125.989	20.5945	-46.9659	-130.59	12.0401	-23.9938	-158.142	20.1535	-44.3962	
352	2.93333	-180.823	41.9539	-32.2792	-192.767	56.194	-47.366	-208.21	62.6105	-71.9644	-219.98	67.9519	-82.146	-157.623	45.7425	-103.689	-156.279	56.1092	-129.452	-145.522	61.1746	-151.255	-129.439	36.2319	-102.099	-120.738	42.5391	-124.693	-112.07	47.7493	-155.64	-104.026	37.0027	-94.518	-97.0821	42.9475	-112.063	-85.2983	47.6293	-135.577	-83.5293	37.0031	-71.5413	-71.102	44.6823	-83.0392	-51.1983	41.6531	-93.3728	-123.259	14.7013	-50.6112	-130.435	8.5235	-19.7717	-156.047	15.7003	-41.4753	
353	2.94167	-178.786	38.7691	-34.8276	-191.058	52.7246	-49.7439	-206.931	56.5833	-72.8682	-220.28	60.9517	-82.9097	-154.728	35.2935	-107.305	-154.123	43.0326	-131.218	-152.123	47.3165	-153.054	-131.375	26.8717	-108.436	-123.853	32.0288	-130.937	-113.013	30.5791	-155.068	-107.465	27.1994	-93.105	-99.5706	31.2021	-116.115	-90.2392	32.9708	-135.916	-85.009	28.5025	-73.4002	-73.4224	34.3304	-88.3177	-53.6849	30.2362	-95.9468	-125.646	11.2139	-50.3951	-134.7	5.63373	-20.979	-158.572	12.195	-44.3903	
354	2.95	-182.593	35.6701	-33.907	-193.958	47.5242	-53.4721	-208.478	50.0286	-73.3777	-222.461	53.4046	-87.7412	-159.312	26.362	-106.618	-157.072	31.6398	-131.557	-155.75	33.5418	-152.944	-130.95	16.4274	-104.434	-125.866	18.8782	-131.445	-117.074	15.9553	-154.484	-111.438	18.2591	-96.6792	-103.007	20.5598	-118.576	-91.0457	19.2509	-140.336	-91.7834	21.3044	-76.5359	-72.2162	23.7625	-90.7668	-59.1182	18.1765	-103.505	-128.032	3.47557	-48.8555	-132.54	-0.76831	-18.3209	-158.295	9.11351	-40.146	
355	2.95833	-181.283	32.2875	-34.0955	-193.958	43.434	-54.2152	-209.408	44.333	-76.6642	-223.479	47.4654	-85.2493	-159.384	17.0793	-107.755	-158.599	19.0963	-133.701	-159.83	18.8065	-152.947	-131.968	6.21245	-109.051	-129.634	6.75275	-130.62	-120.588	0.714985	-153.452	-112.078	8.05593	-96.208	-104.453	8.17461	-120.286	-96.727	5.81558	-140.823	-88.5214	12.2824	-80.3213	-76.4803	14.9592	-95.9094	-57.9841	6.17746	-104.427	-124.122	-1.5895	-47.6882	-134.515	-2.86622	-21.4494	-160.457	3.71503	-44.3587	
356	2.96667	-181.831	27.8084	-35.5044	-191.638	37.7443	-56.9374	-206.45	39.4763	-74.2152	-227.089	40.3902	-89.0301	-162.928	7.9074	-108.285	-163.078	7.90622	-128.544	-159.552	1.94957	-154.8	-136.321	-3.35546	-106.054	-130.431	-5.16823	-130.441	-124.517	-15.1779	-155.552	-117.396	-1.02692	-98.7559	-107.492	-3.53768	-121.128	-95.9353	-9.5359	-142.48	-93.8109	3.55963	-83.3315	-79.4035	4.11626	-98.0813	-62.8079	-4.78872	-109.256	-125.678	-5.36231	-48.3491	-135.525	-4.04832	-18.2097	-162.387	-1.29492	-42.2028	
357	2.975	-181.789	25.924	-33.5835	-193.497	34.1378	-53.2576	-210.561	32.2745	-76.4313	-223.139	33.7592	-88.9285	-163.663	-0.620262	-104.37	-166.097	-1.6155	-126.767	-163.108	-9.78407	-147.655	-141.708	-9.81654	-103.722	-134.834	-14.8847	-126.5	-130.79	-28.1116	-153.838	-118.763	-9.3215	-97.4218	-108.42	-13.5959	-117.627	-103.545	-21.2521	-141.579	-95.6871	-2.84605	-82.9759	-82.7891	-3.41765	-94.8867	-62.3382	-13.3993	-110.058	-127.916	-10.4146	-44.3756	-132.437	-7.67573	-17.0835	-159.802	-4.33897	-37.3336	
358	2.98333	-183.627	22.7108	-32.5117	-193.398	31.2287	-54.0262	-208.859	28.7301	-74.1794	-224.48	28.3594	-89.397	-168.934	-7.86524	-100.434	-166.833	-11.8011	-122.776	-168.693	-21.4614	-146.748	-141.981	-20.9853	-104.67	-138.581	-26.6389	-126.455	-133.28	-38.4481	-148.156	-116.56	-18.7564	-97.9528	-109.246	-22.6155	-114.615	-102.369	-33.3517	-139.009	-93.6191	-10.2164	-80.4687	-79.2636	-11.6455	-95.2511	-69.1905	-22.0932	-109.002	-130.225	-15.8584	-47.4507	-131.336	-12.2143	-16.8045	-163.567	-6.04293	-36.2815	
359	2.99167	-181.602	18.8145	-36.1138	-192.71	27.2091	-53.7505	-211.401	25.9372	-72.5002	-226.12	25.6854	-86.9603	-172.897	-13.9251	-100.797	-174.052	-18.8329	-123.529	-173.117	-31.4411	-141.729	-147.354	-26.5509	-100.113	-142.167	-32.7367	-120.786	-135.558	-50.7437	-147.057	-120.773	-23.9507	-92.6137	-112.131	-32.632	-115.963	-106.256	-43.1091	-135.78	-101.312	-14.2523	-79.1129	-85.2428	-17.3408	-93.6194	-67.1373	-29.7221	-109.272	-128.858	-20.1824	-44.6603	-130.153	-12.3286	-13.4786	-164.55	-9.84667	-38.5989	
360	3	-183.056	17.5191	-35.1395	-189.618	23.8172	-53.7588	-207.838	19.1966	-77.1184	-226.577	18.7063	-87.8738	-170.399	-22.3123	-98.9013	-175.871	-28.338	-122.063	-174.646	-41.5555	-139.605	-149.861	-33.7381	-99.5423	-143.923	-44.4687	-120.694	-143.711	-60.189	-144.814	-122.09	-31.4004	-90.5183	-115.397	-40.1695	-112.151	-110.453	-53.5817	-135.485	-101.15	-23.3303	-83.0087	-86.8883	-25.0741	-93.1107	-73.8817	-36.8677	-108.097	-130.188	-24.3532	-46.3371	-130.179	-15.911	-17.5367	-162.391	-13.6819	-34.5694	
361	3.00833	-177.932	13.0526	-33.8339	-191.885	17.5354	-57.318	-210.6	12.7893	-75.6576	-227.939	12.5454	-87.1144	-172.203	-30.0275	-96.848	-176.575	-36.2306	-115.307	-180.584	-51.2484	-134.305	-151.662	-39.7513	-93.7244	-149.381	-50.3208	-115.569	-146.98	-67.6069	-137.457	-125.113	-38.1211	-89.5944	-118.419	-50.5048	-112.521	-115.349	-63.7295	-131.284	-100.975	-29.2995	-78.8553	-87.8212	-33.6726	-95.7987	-73.4531	-49.749	-107.356	-134.179	-25.6441	-40.598	-134.595	-16.4571	-12.7417	-159.837	-17.2689	-32.1058	
362	3.01667	-178.588	9.79561	-31.3231	-196.065	12.3411	-55.9727	-213.242	9.00084	-71.9104	-230.718	5.49605	-87.0935	-176.885	-36.0148	-91.431	-180.163	-45.3459	-112.871	-186.913	-60.8768	-130.485	-149.747	-48.5772	-90.3998	-153.9	-61.199	-114.02	-152.708	-78.6338	-134.017	-129.572	-46.7938	-87.8906	-126.365	-55.8491	-107.79	-121.393	-74.4397	-130.652	-105.669	-36.9594	-79.8221	-90.2122	-42.9348	-95.1603	-78.9005	-57.0088	-105.566	-135.881	-32.7734	-37.9318	-133.357	-23.5353	-14.8966	-160.982	-23.4265	-30.3246	
363	3.025	-180.767	4.2164	-30.6761	-192.609	6.28602	-55.9296	-211.638	4.51591	-69.1731	-229.011	-0.465522	-85.0843	-181.401	-43.0279	-87.206	-185.355	-53.8389	-108.417	-192.289	-70.8176	-127.467	-154.979	-56.9407	-88.6988	-156.461	-69.2288	-108.768	-154.653	-89.9102	-128.777	-133.895	-53.912	-85.2364	-128.736	-66.1633	-105.389	-123.057	-81.7159	-123.731	-108.062	-46.1155	-78.9267	-93.2487	-50.9788	-91.5631	-81.4306	-66.8844	-100.496	-136.3	-38.139	-37.4924	-135.851	-25.146	-11.4669	-166.929	-27.8034	-28.3528	
364	3.03333	-182.46	0.413395	-31.1885	-193.357	0.327379	-54.2425	-213.737	-2.7213	-70.9241	-227.758	-4.28011	-82.9054	-181.542	-53.8246	-87.5466	-186.383	-64.0692	-106.037	-191.039	-80.2719	-120.217	-158.787	-64.946	-84.888	-161.201	-79.8304	-105.967	-158.458	-98.2442	-124.147	-134.176	-63.7073	-82.9463	-131.868	-75.6893	-101.886	-129.376	-90.2316	-119.573	-106.763	-52.8877	-74.52	-98.5621	-61.7543	-93.2884	-88.234	-76.5253	-102.216	-132.938	-44.043	-34.6414	-135.644	-29.4862	-9.57065	-165.507	-34.0033	-28.9061	
